<mxfile host="app.diagrams.net" modified="2024-05-29T10:42:31.735Z" agent="Mozilla/5.0 (X11; Ubuntu; Linux x86_64; rv:125.0) Gecko/20100101 Firefox/125.0" etag="KL57DliSU61mMF2BoJBq" version="24.4.9" type="github">
  <diagram name="Page-1" id="VY42i5THTiWJG4nK8XkW">
    <mxGraphModel dx="1416" dy="769" grid="1" gridSize="10" guides="1" tooltips="1" connect="1" arrows="1" fold="1" page="1" pageScale="1" pageWidth="850" pageHeight="1100" math="0" shadow="0">
      <root>
        <mxCell id="0" />
        <mxCell id="1" parent="0" />
        <mxCell id="eFynIBNIJHpvOeCvleQh-1" value="&lt;font style=&quot;font-size: 16px;&quot;&gt;&lt;b&gt;Service&lt;/b&gt;&lt;/font&gt;" style="rounded=1;whiteSpace=wrap;html=1;strokeWidth=3;fillColor=#d5e8d4;strokeColor=#82b366;" vertex="1" parent="1">
          <mxGeometry x="160" y="120" width="120" height="60" as="geometry" />
        </mxCell>
        <mxCell id="eFynIBNIJHpvOeCvleQh-4" value="&lt;font size=&quot;1&quot;&gt;&lt;b style=&quot;font-size: 17px;&quot;&gt;Faru Gateway&lt;/b&gt;&lt;/font&gt;" style="rounded=1;whiteSpace=wrap;html=1;strokeWidth=3;fillColor=#fff2cc;strokeColor=#d6b656;" vertex="1" parent="1">
          <mxGeometry x="200" y="240" width="360" height="60" as="geometry" />
        </mxCell>
        <mxCell id="eFynIBNIJHpvOeCvleQh-5" value="&lt;b&gt;&lt;font style=&quot;font-size: 16px;&quot;&gt;Service&lt;/font&gt;&lt;/b&gt;" style="rounded=1;whiteSpace=wrap;html=1;strokeWidth=3;fillColor=#d5e8d4;strokeColor=#82b366;" vertex="1" parent="1">
          <mxGeometry x="480" y="120" width="120" height="60" as="geometry" />
        </mxCell>
        <mxCell id="eFynIBNIJHpvOeCvleQh-9" value="" style="rounded=1;whiteSpace=wrap;html=1;strokeWidth=3;fillColor=#d5e8d4;strokeColor=#82b366;" vertex="1" parent="1">
          <mxGeometry x="326" y="385" width="120" height="60" as="geometry" />
        </mxCell>
        <mxCell id="eFynIBNIJHpvOeCvleQh-13" value="" style="rounded=1;whiteSpace=wrap;html=1;strokeWidth=3;fillColor=#d5e8d4;strokeColor=#82b366;" vertex="1" parent="1">
          <mxGeometry x="320" y="379" width="120" height="60" as="geometry" />
        </mxCell>
        <mxCell id="eFynIBNIJHpvOeCvleQh-12" value="" style="rounded=1;whiteSpace=wrap;html=1;strokeWidth=3;fillColor=#d5e8d4;strokeColor=#82b366;" vertex="1" parent="1">
          <mxGeometry x="314" y="373" width="120" height="60" as="geometry" />
        </mxCell>
        <mxCell id="eFynIBNIJHpvOeCvleQh-14" value="&lt;b&gt;&lt;font style=&quot;font-size: 18px;&quot;&gt;Clients&lt;/font&gt;&lt;/b&gt;" style="text;html=1;align=center;verticalAlign=middle;whiteSpace=wrap;rounded=0;" vertex="1" parent="1">
          <mxGeometry x="344" y="388" width="60" height="30" as="geometry" />
        </mxCell>
        <mxCell id="eFynIBNIJHpvOeCvleQh-15" value="" style="endArrow=classic;startArrow=classic;html=1;rounded=0;entryX=0.5;entryY=1;entryDx=0;entryDy=0;exitX=0.5;exitY=1;exitDx=0;exitDy=0;strokeWidth=2;" edge="1" parent="1" source="eFynIBNIJHpvOeCvleQh-1" target="eFynIBNIJHpvOeCvleQh-5">
          <mxGeometry width="50" height="50" relative="1" as="geometry">
            <mxPoint x="220" y="220" as="sourcePoint" />
            <mxPoint x="540" y="220" as="targetPoint" />
            <Array as="points">
              <mxPoint x="380" y="240" />
            </Array>
          </mxGeometry>
        </mxCell>
        <mxCell id="eFynIBNIJHpvOeCvleQh-17" value="" style="endArrow=classic;html=1;rounded=0;entryX=0.483;entryY=1.067;entryDx=0;entryDy=0;entryPerimeter=0;exitX=0.5;exitY=0;exitDx=0;exitDy=0;" edge="1" parent="1" source="eFynIBNIJHpvOeCvleQh-12" target="eFynIBNIJHpvOeCvleQh-4">
          <mxGeometry width="50" height="50" relative="1" as="geometry">
            <mxPoint x="337" y="360" as="sourcePoint" />
            <mxPoint x="387" y="310" as="targetPoint" />
          </mxGeometry>
        </mxCell>
      </root>
    </mxGraphModel>
  </diagram>
</mxfile>
